<svg width="37" height="37" viewBox="0 0 37 37" fill="none" xmlns="http://www.w3.org/2000/svg">
<g clip-path="url(#clip0_4_66)">
<path d="M18.5 9.09585C20.2883 9.09585 21.7375 10.545 21.7375 12.3334C21.7375 14.1217 20.2883 15.5709 18.5 15.5709C16.7117 15.5709 15.2625 14.1217 15.2625 12.3334C15.2625 10.545 16.7117 9.09585 18.5 9.09585ZM18.5 22.9709C23.0788 22.9709 27.9042 25.2217 27.9042 26.2084V27.9042H9.09584V26.2084C9.09584 25.2217 13.9213 22.9709 18.5 22.9709ZM18.5 6.16669C15.0929 6.16669 12.3333 8.92627 12.3333 12.3334C12.3333 15.7404 15.0929 18.5 18.5 18.5C21.9071 18.5 24.6667 15.7404 24.6667 12.3334C24.6667 8.92627 21.9071 6.16669 18.5 6.16669ZM18.5 20.0417C14.3838 20.0417 6.16667 22.1075 6.16667 26.2084V30.8334H30.8333V26.2084C30.8333 22.1075 22.6163 20.0417 18.5 20.0417Z" fill="black"/>
</g>
<defs>
<clipPath id="clip0_4_66">
<rect width="37" height="37" fill="white"/>
</clipPath>
</defs>
</svg>
